<svg width="24" height="24" viewBox="0 0 24 24" fill="none" xmlns="http://www.w3.org/2000/svg">
<path d="M12 14L12 7" stroke="white" stroke-width="1.5" stroke-linecap="round" stroke-dasharray="0.2 0.2"/>
<path d="M14 8L12.8321 6.24807C12.4362 5.65434 11.5638 5.65434 11.1679 6.24808L10 8" stroke="white" stroke-width="1.5" stroke-linecap="round" stroke-dasharray="0.2 0.2"/>
<path d="M16.5 10.75C16.0858 10.75 15.75 10.4142 15.75 10C15.75 9.58579 16.0858 9.25 16.5 9.25V10.75ZM7 9.25C7.41421 9.25 7.75 9.58579 7.75 10C7.75 10.4142 7.41421 10.75 7 10.75V9.25ZM19.25 16.2026L19.25 12.8H20.75L20.75 16.2026H19.25ZM4.75 12.8V16.1898H3.25L3.25 12.8L4.75 12.8ZM6.80642 18.242C10.6959 18.2398 13.6452 18.2514 17.2054 18.2499L17.206 19.7499C13.5873 19.7514 10.7475 19.7398 6.80728 19.742L6.80642 18.242ZM17.2 10.75H16.5V9.25H17.2V10.75ZM6.8 9.25H7V10.75H6.8V9.25ZM4.75 16.1898C4.75 17.3232 5.67096 18.2427 6.80642 18.242L6.80728 19.742C4.84513 19.7432 3.25 18.154 3.25 16.1898H4.75ZM3.25 12.8C3.25 10.8394 4.83939 9.25 6.8 9.25V10.75C5.66782 10.75 4.75 11.6678 4.75 12.8L3.25 12.8ZM19.25 12.8C19.25 11.6678 18.3322 10.75 17.2 10.75V9.25C19.1606 9.25 20.75 10.8394 20.75 12.8H19.25ZM20.75 16.2026C20.75 18.1599 19.1645 19.749 17.206 19.7499L17.2054 18.2499C18.3345 18.2494 19.25 17.3329 19.25 16.2026H20.75Z" fill="white"/>
</svg>
