<svg width="18" height="22" viewBox="0 0 18 22" fill="none" xmlns="http://www.w3.org/2000/svg">
<path d="M17.75 17.1276C17.75 16.7134 17.4142 16.3776 17 16.3776C16.5858 16.3776 16.25 16.7134 16.25 17.1276H17.75ZM16.1124 18.6715L15.6373 18.0912L16.1124 18.6715ZM13.6464 19.8729L13.8624 20.5911L13.6464 19.8729ZM10.1494 20.465L10.1952 21.2136L10.1494 20.465ZM6.39733 20.3165L6.28968 21.0588L6.39733 20.3165ZM3.2228 19.4604L3.52491 18.7739L3.52491 18.7739L3.2228 19.4604ZM1.33029 18.0866L0.716914 18.5182H0.716914L1.33029 18.0866ZM1.82387 16.8074C1.99363 16.4296 1.82496 15.9856 1.44713 15.8159C1.0693 15.6461 0.625394 15.8148 0.455632 16.1926L1.82387 16.8074ZM16.25 17.1276C16.25 17.3594 16.1202 17.6959 15.6373 18.0912L16.5874 19.2519C17.2712 18.6922 17.75 17.97 17.75 17.1276H16.25ZM15.6373 18.0912C15.1561 18.4851 14.411 18.8597 13.4304 19.1547L13.8624 20.5911C14.9562 20.2621 15.902 19.813 16.5874 19.2519L15.6373 18.0912ZM13.4304 19.1547C12.4569 19.4475 11.3161 19.6422 10.1036 19.7164L10.1952 21.2136C11.5045 21.1335 12.7616 20.9222 13.8624 20.5911L13.4304 19.1547ZM10.1036 19.7164C8.89201 19.7906 7.65711 19.7414 6.50498 19.5743L6.28968 21.0588C7.54716 21.2412 8.88502 21.2938 10.1952 21.2136L10.1036 19.7164ZM6.50498 19.5743C5.35043 19.4069 4.33044 19.1285 3.52491 18.7739L2.9207 20.1469C3.87787 20.5681 5.03463 20.8767 6.28968 21.0588L6.50498 19.5743ZM3.52491 18.7739C2.70754 18.4142 2.19626 18.014 1.94366 17.655L0.716914 18.5182C1.18896 19.1891 1.97536 19.7308 2.9207 20.1469L3.52491 18.7739ZM1.94366 17.655C1.71744 17.3335 1.7064 17.0688 1.82387 16.8074L0.455632 16.1926C0.0988814 16.9866 0.21849 17.8099 0.716914 18.5182L1.94366 17.655Z" fill="#141414"/>
<mask id="path-2-inside-1_246_6" fill="white">
<path d="M2.55725 9.82881C0.612559 5.40042 3.99693 0.5 9 0.5C14.0031 0.5 17.3874 5.40042 15.4427 9.82881L12.659 16.1678C12.0383 17.5812 10.5968 18.5 9 18.5C7.40318 18.5 5.96166 17.5812 5.34098 16.1678L2.55725 9.82881Z"/>
</mask>
<path d="M5.34098 16.1678L3.96757 16.7709L5.34098 16.1678ZM12.659 16.1678L11.2856 15.5647L12.659 16.1678ZM15.4427 9.82881L16.8162 10.4319L15.4427 9.82881ZM2.55725 9.82881L3.93066 9.22569L2.55725 9.82881ZM14.0693 9.22569L11.2856 15.5647L14.0324 16.7709L16.8162 10.4319L14.0693 9.22569ZM6.71438 15.5647L3.93066 9.22569L1.18385 10.4319L3.96757 16.7709L6.71438 15.5647ZM9 17C7.97176 17 7.08523 16.4092 6.71438 15.5647L3.96757 16.7709C4.83809 18.7532 6.8346 20 9 20V17ZM11.2856 15.5647C10.9148 16.4092 10.0282 17 9 17V20C11.1654 20 13.1619 18.7532 14.0324 16.7709L11.2856 15.5647ZM9 2C13.016 2 15.541 5.87456 14.0693 9.22569L16.8162 10.4319C19.2339 4.92628 14.9901 -1 9 -1V2ZM9 -1C3.00986 -1 -1.23392 4.92627 1.18385 10.4319L3.93066 9.22569C2.45904 5.87456 4.984 2 9 2V-1Z" fill="#141414" mask="url(#path-2-inside-1_246_6)"/>
<circle cx="9" cy="6.5" r="2" fill="#141414"/>
</svg>
