<svg width="357" height="65" viewBox="0 0 357 65" fill="none" xmlns="http://www.w3.org/2000/svg">
<path d="M94.453 47.7883C97.3684 46.7566 99.028 44.2897 99.028 41.0155C99.028 36.0368 95.4397 32.5831 89.5191 32.5831H74V63.9802H90.5508C96.6508 63.9802 100.418 60.1677 100.418 55.0993C100.418 51.1522 98.2206 48.4611 94.453 47.7883ZM88.353 38.1449C90.9096 38.1449 92.2103 39.4007 92.2103 41.5088C92.2103 43.8861 90.9096 45.2765 88.353 45.2765H80.5485V38.1449H88.353ZM89.4743 58.4184H80.5485V50.7486H89.4743C92.2103 50.7486 93.6008 52.0942 93.6008 54.5162C93.6008 56.9831 92.2103 58.4184 89.4743 58.4184Z" fill="#141414"/>
<path d="M128.367 63.9802H135.32L122.985 32.5831H115.36L103.026 63.9802H109.978L112.624 56.9383H125.721L128.367 63.9802ZM114.867 50.8383L119.173 39.311L123.478 50.8383H114.867Z" fill="#141414"/>
<path d="M151.894 64.5633C159.519 64.5633 164.722 60.7956 164.722 54.6508C164.722 47.4743 157.052 45.9941 152.612 45.1419C147.858 44.2897 146.288 43.5272 146.288 41.6434C146.288 39.4905 148.127 38.0552 152.029 38.0552C154.899 38.0552 157.994 38.8625 160.82 40.6118L163.915 35.1846C160.596 33.1662 156.828 32 152.433 32C146.512 32 139.201 34.1529 139.201 42.361C139.201 47.6537 142.251 49.4478 151.625 51.5111C155.079 52.2287 157.546 52.6324 157.546 55.0545C157.546 57.342 155.393 58.553 152.119 58.553C148.575 58.553 144.045 57.028 141.399 55.0096L138.304 60.392C140.502 62.0515 146.019 64.5633 151.894 64.5633Z" fill="#141414"/>
<path d="M191.572 32.5831V45.0522H177.219V32.5831H170.671V63.9802H177.219V51.1522H191.572V63.9802H198.121V32.5831H191.572Z" fill="#141414"/>
<path d="M229.133 32.5831H202.894V38.6382H212.761V63.9802H219.265V38.6382H229.133V32.5831Z" fill="#141414"/>
<path d="M251.907 63.9802H259.757L251.593 52.0942C256.168 50.8383 258.815 47.25 258.815 42.5405C258.815 36.6647 254.688 32.5831 247.915 32.5831H233.876V63.9802H240.425V52.5427H244.641L251.907 63.9802ZM240.425 38.6831H247.736C250.562 38.6831 252.042 40.0287 252.042 42.5853C252.042 45.0971 250.562 46.4427 247.736 46.4427H240.425V38.6831Z" fill="#141414"/>
<path d="M287.28 63.9802H294.233L281.898 32.5831H274.273L261.938 63.9802H268.891L271.537 56.9383H284.634L287.28 63.9802ZM273.78 50.8383L278.085 39.311L282.391 50.8383H273.78Z" fill="#141414"/>
<path d="M311.211 32.5831H298.966V63.9802H311.211C320.675 63.9802 327.717 57.8802 327.717 48.2816C327.717 38.6382 320.675 32.5831 311.211 32.5831ZM311.211 57.8802H305.514V38.6831H311.211C317.087 38.6831 320.899 42.4508 320.899 48.2816C320.899 54.1125 317.087 57.8802 311.211 57.8802Z" fill="#141414"/>
<path d="M339.855 57.925V51.1522H355.733V45.0522H339.855V38.6382H356.451V32.5831H333.307V63.9802H356.81V57.925H339.855Z" fill="#141414"/>
<path d="M64 32C64 25.671 62.1232 19.4841 58.607 14.2218C55.0908 8.95938 50.0931 4.85786 44.2459 2.43585C38.3986 0.0138507 31.9645 -0.619856 25.7571 0.614871C19.5497 1.8496 13.8479 4.8973 9.37258 9.37258C4.8973 13.8479 1.8496 19.5497 0.614871 25.7571C-0.619856 31.9645 0.0138507 38.3986 2.43585 44.2459C4.85786 50.0931 8.95938 55.0908 14.2218 58.607C19.4841 62.1232 25.671 64 32 64V48.16C28.8038 48.16 25.6795 47.2122 23.022 45.4365C20.3645 43.6609 18.2932 41.137 17.0701 38.1842C15.847 35.2313 15.527 31.9821 16.1505 28.8473C16.774 25.7126 18.3131 22.8332 20.5732 20.5732C22.8332 18.3131 25.7126 16.774 28.8473 16.1505C31.9821 15.527 35.2313 15.847 38.1842 17.0701C41.137 18.2932 43.6609 20.3645 45.4365 23.022C47.2122 25.6795 48.16 28.8038 48.16 32H64Z" fill="#E10028"/>
<rect x="48.1602" y="48.1582" width="15.8416" height="15.8416" fill="#141414"/>
</svg>
