<svg width="18" height="14" viewBox="0 0 18 14" fill="none" xmlns="http://www.w3.org/2000/svg">
<rect x="1" y="1" width="16" height="12" rx="2.8" stroke="#141414" stroke-width="1.5"/>
<path d="M5.45 4.4C5.11863 4.15147 4.64853 4.21863 4.4 4.55C4.15147 4.88137 4.21863 5.35147 4.55 5.6L5.45 4.4ZM13.45 5.6C13.7814 5.35147 13.8485 4.88137 13.6 4.55C13.3515 4.21863 12.8814 4.15147 12.55 4.4L13.45 5.6ZM4.55 5.6L7.95 8.15L8.85 6.95L5.45 4.4L4.55 5.6ZM10.05 8.15L13.45 5.6L12.55 4.4L9.15 6.95L10.05 8.15ZM7.95 8.15C8.57222 8.61667 9.42778 8.61667 10.05 8.15L9.15 6.95C9.06111 7.01667 8.93889 7.01667 8.85 6.95L7.95 8.15Z" fill="#141414"/>
</svg>
