<svg width="1031" height="565" viewBox="0 0 1031 565" fill="none" xmlns="http://www.w3.org/2000/svg">
<path d="M368.223 369.059C514.981 430.178 728.348 180.213 896.333 180.213" stroke="#E10028" stroke-width="1.09794"/>
<path d="M294.662 437.132C418.73 501.91 854.612 330.631 896.334 180.213" stroke="#E10028" stroke-width="1.09794"/>
<path fill-rule="evenodd" clip-rule="evenodd" d="M630.771 261.855C630.688 262.072 630.619 263.524 630.619 265.081V267.913L629.563 267.99C628.425 268.072 628.191 268.417 628.484 269.582C628.633 270.176 628.677 270.185 631.496 270.185H634.358V269.063V267.942H633.361H632.364V265.096C632.364 261.831 632.275 261.461 631.492 261.461C631.178 261.461 630.854 261.638 630.771 261.855ZM628.528 272.574C628.444 272.79 628.376 274.239 628.376 275.794C628.376 277.348 628.444 278.797 628.528 279.014C628.653 279.341 629.159 279.408 631.518 279.408H634.358V275.794V272.179H631.518C629.159 272.179 628.653 272.246 628.528 272.574ZM645.432 275.996C645.363 276.177 645.338 277.551 645.377 279.05L645.448 281.776L648.501 281.846L651.554 281.916V278.792V275.669H648.556C646.309 275.669 645.526 275.751 645.432 275.996ZM654.154 275.996C654.085 276.177 654.061 277.551 654.1 279.05L654.171 281.776L657.224 281.846L660.277 281.916V278.792V275.669H657.279C655.031 275.669 654.249 275.751 654.154 275.996ZM623.392 281.651C622.942 282.102 622.894 282.482 622.894 285.592C622.894 287.952 622.991 289.167 623.205 289.459C623.489 289.847 624.223 289.879 631.616 289.818L639.716 289.752L639.785 285.766C639.846 282.235 639.805 281.743 639.426 281.466C639.105 281.231 637.113 281.153 631.444 281.153C624.223 281.153 623.869 281.175 623.392 281.651ZM645.432 284.222C645.363 284.402 645.338 285.776 645.377 287.276L645.448 290.001L648.501 290.072L651.554 290.142V287.018V283.895H648.556C646.309 283.895 645.526 283.977 645.432 284.222ZM654.154 284.222C654.085 284.402 654.061 285.776 654.1 287.276L654.171 290.001L657.224 290.072L660.277 290.142V287.018V283.895H657.279C655.031 283.895 654.249 283.977 654.154 284.222ZM662.936 284.061C662.728 284.268 662.715 289.196 662.921 289.732C663.047 290.061 663.561 290.126 666.009 290.126C668.458 290.126 668.972 290.061 669.098 289.732C669.294 289.219 669.294 284.801 669.098 284.289C668.972 283.96 668.459 283.895 666.024 283.895C664.417 283.895 663.027 283.969 662.936 284.061ZM671.741 291.123L670.952 292.12H645.303C631.196 292.12 619.652 292.204 619.65 292.307C619.645 292.601 625.443 306.915 625.708 307.263C625.895 307.508 630.908 307.574 649.294 307.574C667.604 307.574 672.725 307.507 673.024 307.263C673.669 306.736 683.492 290.636 683.329 290.373C683.236 290.222 681.102 290.126 677.854 290.126H672.531L671.741 291.123ZM663.375 296.5C663.909 297.035 663.866 297.686 663.26 298.234C662.171 299.219 660.593 297.603 661.536 296.467C661.929 295.993 662.885 296.01 663.375 296.5ZM669.605 296.5C670.361 297.256 669.814 298.601 668.751 298.601C667.742 298.601 667.099 297.112 667.804 296.408C668.223 295.988 669.14 296.035 669.605 296.5Z" fill="#E10028"/>
<path fill-rule="evenodd" clip-rule="evenodd" d="M479.255 393.609C479.172 393.826 479.104 395.277 479.104 396.835V399.667L478.047 399.743C476.909 399.826 476.676 400.17 476.968 401.335C477.117 401.93 477.162 401.939 479.981 401.939H482.842V400.817V399.695H481.845H480.848V396.849C480.848 393.585 480.759 393.214 479.976 393.214C479.663 393.214 479.338 393.392 479.255 393.609ZM477.012 404.327C476.929 404.544 476.861 405.993 476.861 407.547C476.861 409.101 476.929 410.55 477.012 410.767C477.138 411.095 477.644 411.161 480.003 411.161H482.842V407.547V403.933H480.003C477.644 403.933 477.138 403.999 477.012 404.327ZM493.916 407.75C493.847 407.93 493.822 409.304 493.861 410.803L493.933 413.529L496.986 413.599L500.039 413.669V410.546V407.422H497.04C494.793 407.422 494.01 407.504 493.916 407.75ZM502.639 407.75C502.57 407.93 502.545 409.304 502.584 410.803L502.655 413.529L505.708 413.599L508.761 413.669V410.546V407.422H505.763C503.516 407.422 502.733 407.504 502.639 407.75ZM471.876 413.405C471.426 413.855 471.378 414.235 471.378 417.345C471.378 419.706 471.476 420.921 471.689 421.213C471.974 421.601 472.707 421.632 480.101 421.572L488.201 421.506L488.27 417.519C488.331 413.989 488.289 413.496 487.91 413.219C487.589 412.984 485.598 412.906 479.929 412.906C472.707 412.906 472.353 412.928 471.876 413.405ZM493.916 415.976C493.847 416.156 493.822 417.53 493.861 419.029L493.933 421.755L496.986 421.825L500.039 421.895V418.771V415.648H497.04C494.793 415.648 494.01 415.73 493.916 415.976ZM502.639 415.976C502.57 416.156 502.545 417.53 502.584 419.029L502.655 421.755L505.708 421.825L508.761 421.895V418.771V415.648H505.763C503.516 415.648 502.733 415.73 502.639 415.976ZM511.42 415.814C511.212 416.022 511.199 420.949 511.405 421.485C511.531 421.814 512.045 421.88 514.494 421.88C516.942 421.88 517.456 421.814 517.582 421.485C517.779 420.973 517.779 416.555 517.582 416.042C517.456 415.714 516.943 415.648 514.509 415.648C512.901 415.648 511.511 415.723 511.42 415.814ZM520.226 422.877L519.436 423.874H493.787C479.68 423.874 468.137 423.958 468.135 424.061C468.13 424.354 473.927 438.668 474.192 439.016C474.379 439.262 479.392 439.328 497.778 439.328C516.088 439.328 521.21 439.261 521.508 439.016C522.153 438.489 531.976 422.39 531.813 422.127C531.72 421.976 529.586 421.88 526.338 421.88H521.015L520.226 422.877ZM511.859 428.253C512.393 428.788 512.351 429.439 511.745 429.987C510.656 430.973 509.078 429.356 510.02 428.221C510.413 427.747 511.369 427.764 511.859 428.253ZM518.09 428.253C518.845 429.009 518.298 430.354 517.235 430.354C516.226 430.354 515.583 428.866 516.288 428.161C516.707 427.741 517.625 427.789 518.09 428.253Z" fill="#E10028"/>
<path fill-rule="evenodd" clip-rule="evenodd" d="M981.833 135.916C981.916 136.133 981.984 137.585 981.984 139.142V141.974L983.041 142.051C984.179 142.133 984.412 142.478 984.12 143.643C983.971 144.237 983.926 144.246 981.107 144.246H978.246V143.124V142.003H979.243H980.239V139.157C980.239 135.892 980.328 135.522 981.112 135.522C981.425 135.522 981.75 135.699 981.833 135.916ZM984.076 146.635C984.159 146.851 984.227 148.3 984.227 149.855C984.227 151.409 984.159 152.858 984.076 153.075C983.95 153.402 983.444 153.469 981.085 153.469H978.246V149.855V146.24H981.085C983.444 146.24 983.95 146.307 984.076 146.635ZM967.172 150.057C967.241 150.238 967.266 151.612 967.227 153.111L967.155 155.837L964.102 155.907L961.049 155.977V152.853V149.73H964.048C966.295 149.73 967.078 149.812 967.172 150.057ZM958.449 150.057C958.518 150.238 958.543 151.612 958.504 153.111L958.432 155.837L955.379 155.907L952.326 155.977V152.853V149.73H955.325C957.572 149.73 958.355 149.812 958.449 150.057ZM989.212 155.712C989.662 156.163 989.71 156.543 989.71 159.653C989.71 162.013 989.612 163.228 989.398 163.52C989.114 163.908 988.381 163.94 980.987 163.879L972.887 163.813L972.818 159.827C972.757 156.297 972.799 155.804 973.177 155.527C973.499 155.292 975.49 155.214 981.159 155.214C988.381 155.214 988.735 155.236 989.212 155.712ZM967.172 158.283C967.241 158.463 967.266 159.838 967.227 161.337L967.155 164.063L964.102 164.133L961.049 164.203V161.079V157.956H964.048C966.295 157.956 967.078 158.038 967.172 158.283ZM958.449 158.283C958.518 158.463 958.543 159.838 958.504 161.337L958.432 164.063L955.379 164.133L952.326 164.203V161.079V157.956H955.325C957.572 157.956 958.355 158.038 958.449 158.283ZM949.668 158.122C949.876 158.329 949.889 163.257 949.683 163.793C949.557 164.122 949.043 164.187 946.594 164.187C944.146 164.187 943.632 164.122 943.506 163.793C943.309 163.28 943.309 158.862 943.506 158.35C943.632 158.021 944.144 157.956 946.579 157.956C948.187 157.956 949.577 158.03 949.668 158.122ZM940.862 165.184L941.652 166.181H967.301C981.408 166.181 992.951 166.266 992.953 166.368C992.958 166.662 987.16 180.976 986.895 181.324C986.709 181.569 981.696 181.636 963.309 181.636C945 181.636 939.878 181.568 939.579 181.324C938.935 180.797 929.112 164.697 929.274 164.434C929.368 164.283 931.502 164.187 934.75 164.187H940.073L940.862 165.184ZM949.229 170.561C948.694 171.096 948.737 171.747 949.343 172.295C950.432 173.281 952.01 171.664 951.068 170.528C950.675 170.054 949.719 170.071 949.229 170.561ZM942.998 170.561C942.243 171.317 942.79 172.662 943.853 172.662C944.862 172.662 945.505 171.173 944.8 170.469C944.38 170.049 943.463 170.096 942.998 170.561Z" fill="#E10028"/>
<path fill-rule="evenodd" clip-rule="evenodd" d="M973.048 289.628C973.131 289.845 973.199 291.297 973.199 292.854V295.686L974.256 295.763C975.394 295.845 975.627 296.19 975.335 297.355C975.185 297.949 975.141 297.958 972.322 297.958H969.461V296.836V295.715H970.457H971.454V292.869C971.454 289.604 971.543 289.234 972.327 289.234C972.64 289.234 972.964 289.411 973.048 289.628ZM975.291 300.347C975.374 300.563 975.442 302.012 975.442 303.566C975.442 305.121 975.374 306.57 975.291 306.786C975.165 307.114 974.659 307.181 972.3 307.181H969.461V303.566V299.952H972.3C974.659 299.952 975.165 300.019 975.291 300.347ZM958.387 303.769C958.456 303.95 958.48 305.324 958.441 306.823L958.37 309.549L955.317 309.619L952.264 309.689V306.565V303.442H955.263C957.51 303.442 958.293 303.524 958.387 303.769ZM949.664 303.769C949.733 303.95 949.758 305.324 949.719 306.823L949.647 309.549L946.594 309.619L943.541 309.689V306.565V303.442H946.54C948.787 303.442 949.57 303.524 949.664 303.769ZM980.426 309.424C980.877 309.875 980.925 310.255 980.925 313.365C980.925 315.725 980.827 316.94 980.613 317.232C980.329 317.62 979.595 317.652 972.202 317.591L964.102 317.525L964.033 313.538C963.972 310.008 964.014 309.516 964.392 309.239C964.714 309.004 966.705 308.926 972.374 308.926C979.596 308.926 979.95 308.948 980.426 309.424ZM958.387 311.995C958.456 312.175 958.48 313.549 958.441 315.049L958.37 317.774L955.317 317.844L952.264 317.915V314.791V311.668H955.263C957.51 311.668 958.293 311.75 958.387 311.995ZM949.664 311.995C949.733 312.175 949.758 313.549 949.719 315.049L949.647 317.774L946.594 317.844L943.541 317.915V314.791V311.668H946.54C948.787 311.668 949.57 311.75 949.664 311.995ZM940.883 311.834C941.091 312.041 941.104 316.969 940.898 317.505C940.772 317.834 940.258 317.899 937.809 317.899C935.361 317.899 934.847 317.834 934.721 317.505C934.524 316.992 934.524 312.574 934.721 312.062C934.847 311.733 935.359 311.668 937.794 311.668C939.402 311.668 940.792 311.742 940.883 311.834ZM932.077 318.896L932.867 319.893H958.516C972.623 319.893 984.166 319.977 984.168 320.08C984.173 320.374 978.375 334.688 978.11 335.036C977.923 335.281 972.911 335.347 954.524 335.347C936.215 335.347 931.093 335.28 930.794 335.036C930.149 334.509 920.327 318.409 920.489 318.146C920.583 317.995 922.716 317.899 925.965 317.899H931.287L932.077 318.896ZM940.444 324.273C939.909 324.808 939.952 325.458 940.558 326.007C941.647 326.992 943.225 325.376 942.283 324.24C941.889 323.766 940.933 323.783 940.444 324.273ZM934.213 324.273C933.457 325.029 934.004 326.374 935.068 326.374C936.077 326.374 936.72 324.885 936.015 324.18C935.595 323.761 934.678 323.808 934.213 324.273Z" fill="#E10028"/>
<path fill-rule="evenodd" clip-rule="evenodd" d="M18.1204 362.093C18.0371 362.309 17.9691 363.761 17.9691 365.319V368.15L16.9121 368.227C15.7744 368.309 15.5409 368.654 15.8332 369.819C15.9825 370.413 16.0269 370.422 18.8461 370.422H21.7074V369.301V368.179H20.7105H19.7136V365.333C19.7136 362.069 19.6247 361.698 18.8414 361.698C18.5281 361.698 18.2036 361.876 18.1204 362.093ZM15.8773 372.811C15.7941 373.028 15.7261 374.477 15.7261 376.031C15.7261 377.585 15.7941 379.034 15.8773 379.251C16.003 379.579 16.5089 379.645 18.868 379.645H21.7074V376.031V372.417H18.868C16.5089 372.417 16.003 372.483 15.8773 372.811ZM32.7812 376.234C32.7122 376.414 32.6875 377.788 32.7266 379.287L32.7979 382.013L35.8509 382.083L38.9039 382.153V379.03V375.906H35.9055C33.6582 375.906 32.8754 375.988 32.7812 376.234ZM41.504 376.234C41.435 376.414 41.4103 377.788 41.4494 379.287L41.5207 382.013L44.5737 382.083L47.6267 382.153V379.03V375.906H44.6283C42.381 375.906 41.5982 375.988 41.504 376.234ZM10.7416 381.889C10.2913 382.339 10.2432 382.719 10.2432 385.829C10.2432 388.19 10.3411 389.405 10.5547 389.696C10.839 390.085 11.5725 390.116 18.966 390.056L27.0657 389.99L27.1348 386.003C27.1958 382.473 27.1545 381.98 26.7756 381.703C26.4541 381.468 24.4629 381.39 18.7938 381.39C11.5723 381.39 11.2181 381.412 10.7416 381.889ZM32.7812 384.459C32.7122 384.64 32.6875 386.014 32.7266 387.513L32.7979 390.239L35.8509 390.309L38.9039 390.379V387.255V384.132H35.9055C33.6582 384.132 32.8754 384.214 32.7812 384.459ZM41.504 384.459C41.435 384.64 41.4103 386.014 41.4494 387.513L41.5207 390.239L44.5737 390.309L47.6267 390.379V387.255V384.132H44.6283C42.381 384.132 41.5982 384.214 41.504 384.459ZM50.2852 384.298C50.0773 384.506 50.0644 389.433 50.2702 389.969C50.3963 390.298 50.9102 390.363 53.3588 390.363C55.8075 390.363 56.3214 390.298 56.4475 389.969C56.6441 389.457 56.6441 385.039 56.4475 384.526C56.3214 384.198 55.8087 384.132 53.3738 384.132C51.7663 384.132 50.3764 384.207 50.2852 384.298ZM59.091 391.36L58.3014 392.358H32.6523C18.5453 392.358 7.00175 392.442 7 392.544C6.99502 392.838 12.7927 407.152 13.0576 407.5C13.2446 407.745 18.2572 407.812 36.6437 407.812C54.9534 407.812 60.0749 407.744 60.3737 407.5C61.0185 406.973 70.8411 390.874 70.6786 390.61C70.5854 390.46 68.4516 390.363 65.2032 390.363H59.8805L59.091 391.36ZM50.7243 396.737C51.2586 397.272 51.2158 397.923 50.6099 398.471C49.521 399.457 47.943 397.84 48.8853 396.705C49.2785 396.231 50.2346 396.248 50.7243 396.737ZM56.9549 396.737C57.7105 397.493 57.1635 398.838 56.1003 398.838C55.0912 398.838 54.4484 397.35 55.1533 396.645C55.5727 396.225 56.4901 396.272 56.9549 396.737Z" fill="#E10028"/>
<path fill-rule="evenodd" clip-rule="evenodd" d="M361.716 480.365C358.446 480.81 355.651 483.535 354.99 486.924C354.192 491.012 356.47 495.236 360.156 496.5L360.783 496.715V507.201C360.783 516.095 360.763 517.687 360.653 517.687C360.582 517.687 360.113 517.6 359.609 517.493C354.316 516.374 349.902 512.43 347.931 507.056C347.576 506.089 347.186 504.556 347.086 503.741L347.024 503.233L349.294 503.204L351.564 503.175L351.927 502.907C352.127 502.761 352.395 502.478 352.522 502.279C352.72 501.972 352.754 501.807 352.754 501.171C352.754 500.536 352.72 500.37 352.522 500.063C352.395 499.865 352.127 499.582 351.927 499.435L351.564 499.168L347.98 499.14L344.396 499.113L343.981 499.343C343.753 499.47 343.441 499.761 343.288 499.99C343.034 500.37 343.006 500.488 342.977 501.343C342.882 504.048 343.637 507.475 344.953 510.309C345.966 512.493 347.066 514.103 348.758 515.885C350.45 517.667 351.98 518.824 354.054 519.892C357.952 521.897 362.39 522.491 366.722 521.585C369.488 521.006 372.405 519.604 374.797 517.702C376.48 516.364 378.537 513.928 379.711 511.88C381.501 508.76 382.601 504.589 382.487 501.35C382.458 500.527 382.425 500.378 382.2 500.039C382.061 499.829 381.792 499.547 381.604 499.412L381.261 499.168L377.678 499.14L374.095 499.113L373.681 499.343C373.452 499.47 373.14 499.761 372.987 499.99C372.736 500.366 372.709 500.48 372.709 501.162C372.709 501.808 372.743 501.972 372.941 502.279C373.068 502.478 373.336 502.761 373.536 502.907L373.899 503.175L376.158 503.204C378.796 503.238 378.543 503.041 378.176 504.775C376.872 510.932 372.32 515.838 366.528 517.332C365.997 517.468 365.364 517.609 365.122 517.645L364.681 517.709V507.21V496.712L365.214 496.537C367.133 495.908 368.844 494.347 369.794 492.358C370.327 491.241 370.536 490.366 370.594 488.998C370.704 486.425 369.894 484.333 368.1 482.555C366.859 481.325 365.36 480.584 363.662 480.362C362.787 480.247 362.579 480.247 361.716 480.365ZM363.391 484.56C365.504 484.982 366.965 487.101 366.635 489.261C366.29 491.519 364.275 493.118 362.205 492.779C360.427 492.487 359.099 491.089 358.823 489.217C358.571 487.514 359.507 485.677 361.002 484.941C361.911 484.493 362.548 484.392 363.391 484.56Z" fill="#E10028"/>
<path fill-rule="evenodd" clip-rule="evenodd" d="M293.646 406.478C290.375 406.923 287.581 409.648 286.919 413.037C286.121 417.126 288.4 421.349 292.086 422.613L292.712 422.828V433.314C292.712 442.208 292.693 443.8 292.583 443.8C292.512 443.8 292.042 443.713 291.539 443.607C286.245 442.488 281.832 438.543 279.861 433.169C279.506 432.202 279.115 430.669 279.016 429.855L278.954 429.347L281.224 429.317L283.494 429.288L283.857 429.021C284.057 428.874 284.325 428.591 284.452 428.393C284.65 428.086 284.684 427.92 284.684 427.285C284.684 426.649 284.65 426.483 284.452 426.177C284.325 425.978 284.057 425.695 283.857 425.548L283.494 425.281L279.91 425.254L276.326 425.226L275.911 425.457C275.683 425.583 275.371 425.874 275.217 426.103C274.963 426.483 274.936 426.601 274.906 427.456C274.812 430.162 275.567 433.588 276.882 436.422C277.896 438.606 278.995 440.217 280.687 441.998C282.379 443.78 283.909 444.937 285.984 446.005C289.881 448.011 294.32 448.604 298.652 447.698C301.418 447.12 304.335 445.717 306.727 443.816C308.41 442.478 310.466 440.041 311.641 437.993C313.431 434.873 314.53 430.702 314.416 427.464C314.387 426.64 314.355 426.491 314.13 426.152C313.99 425.942 313.722 425.66 313.534 425.526L313.191 425.281L309.608 425.254L306.025 425.226L305.61 425.457C305.382 425.583 305.07 425.874 304.917 426.103C304.666 426.479 304.638 426.593 304.638 427.276C304.638 427.921 304.673 428.085 304.87 428.393C304.998 428.591 305.266 428.874 305.466 429.021L305.829 429.288L308.087 429.317C310.726 429.351 310.473 429.155 310.106 430.889C308.801 437.045 304.25 441.951 298.458 443.445C297.927 443.582 297.294 443.723 297.051 443.758L296.61 443.822V433.324V422.825L297.144 422.65C299.062 422.022 300.774 420.46 301.724 418.471C302.257 417.354 302.466 416.479 302.524 415.111C302.633 412.538 301.823 410.446 300.029 408.668C298.789 407.438 297.29 406.698 295.592 406.475C294.717 406.36 294.509 406.36 293.646 406.478ZM295.321 410.674C297.433 411.095 298.895 413.214 298.565 415.375C298.219 417.632 296.205 419.231 294.135 418.892C292.357 418.6 291.029 417.202 290.752 415.33C290.501 413.628 291.437 411.791 292.932 411.054C293.84 410.606 294.477 410.505 295.321 410.674Z" fill="#E10028"/>
<path fill-rule="evenodd" clip-rule="evenodd" d="M895.316 260.776C892.045 261.222 889.251 263.946 888.589 267.335C887.791 271.424 890.07 275.647 893.756 276.911L894.382 277.126V287.612C894.382 296.506 894.363 298.098 894.253 298.098C894.182 298.098 893.712 298.011 893.209 297.905C887.915 296.786 883.502 292.841 881.531 287.467C881.176 286.5 880.785 284.967 880.686 284.153L880.624 283.645L882.894 283.615L885.164 283.586L885.527 283.319C885.727 283.172 885.994 282.889 886.122 282.691C886.319 282.384 886.354 282.218 886.354 281.583C886.354 280.947 886.319 280.782 886.122 280.475C885.994 280.276 885.727 279.993 885.527 279.847L885.164 279.579L881.58 279.552L877.996 279.524L877.581 279.755C877.352 279.882 877.041 280.172 876.887 280.401C876.633 280.781 876.606 280.899 876.576 281.754C876.482 284.46 877.237 287.887 878.552 290.72C879.566 292.904 880.665 294.515 882.357 296.296C884.049 298.078 885.579 299.236 887.653 300.303C891.551 302.309 895.99 302.902 900.322 301.996C903.088 301.418 906.004 300.015 908.396 298.114C910.08 296.776 912.136 294.339 913.311 292.291C915.101 289.171 916.2 285.001 916.086 281.762C916.057 280.938 916.025 280.789 915.8 280.45C915.66 280.24 915.392 279.958 915.203 279.824L914.861 279.579L911.278 279.552L907.695 279.524L907.28 279.755C907.052 279.882 906.74 280.173 906.587 280.402C906.335 280.777 906.308 280.891 906.308 281.574C906.308 282.219 906.342 282.383 906.54 282.691C906.668 282.889 906.936 283.172 907.136 283.319L907.498 283.586L909.757 283.615C912.396 283.65 912.143 283.453 911.776 285.187C910.471 291.343 905.92 296.249 900.128 297.743C899.597 297.88 898.964 298.021 898.721 298.056L898.28 298.12V287.622V277.123L898.814 276.948C900.732 276.32 902.444 274.758 903.393 272.769C903.927 271.652 904.136 270.777 904.194 269.41C904.303 266.836 903.493 264.744 901.699 262.966C900.458 261.736 898.96 260.996 897.262 260.773C896.386 260.658 896.179 260.658 895.316 260.776ZM896.991 264.972C899.103 265.393 900.565 267.512 900.235 269.673C899.889 271.93 897.875 273.529 895.805 273.19C894.027 272.898 892.699 271.5 892.422 269.628C892.171 267.926 893.107 266.089 894.602 265.352C895.51 264.905 896.147 264.803 896.991 264.972Z" fill="#E10028"/>
<path fill-rule="evenodd" clip-rule="evenodd" d="M1009.5 289.323C1006.23 289.768 1003.44 292.493 1002.78 295.882C1001.98 299.97 1004.26 304.194 1007.94 305.458L1008.57 305.673V316.159C1008.57 325.053 1008.55 326.645 1008.44 326.645C1008.37 326.645 1007.9 326.558 1007.4 326.451C1002.1 325.332 997.689 321.388 995.718 316.014C995.364 315.047 994.973 313.514 994.873 312.699L994.811 312.191L997.081 312.162L999.351 312.133L999.714 311.866C999.914 311.719 1000.18 311.436 1000.31 311.237C1000.51 310.93 1000.54 310.765 1000.54 310.129C1000.54 309.494 1000.51 309.328 1000.31 309.021C1000.18 308.823 999.914 308.54 999.714 308.393L999.351 308.126L995.767 308.098L992.183 308.071L991.768 308.301C991.54 308.428 991.228 308.719 991.075 308.948C990.821 309.328 990.794 309.446 990.764 310.301C990.669 313.006 991.425 316.433 992.74 319.267C993.754 321.451 994.853 323.061 996.545 324.843C998.237 326.625 999.767 327.782 1001.84 328.85C1005.74 330.855 1010.18 331.449 1014.51 330.543C1017.28 329.964 1020.19 328.562 1022.58 326.66C1024.27 325.322 1026.32 322.886 1027.5 320.838C1029.29 317.718 1030.39 313.547 1030.27 310.308C1030.24 309.485 1030.21 309.336 1029.99 308.997C1029.85 308.787 1029.58 308.505 1029.39 308.37L1029.05 308.126L1025.47 308.098L1021.88 308.071L1021.47 308.301C1021.24 308.428 1020.93 308.719 1020.77 308.948C1020.52 309.324 1020.5 309.438 1020.5 310.12C1020.5 310.766 1020.53 310.93 1020.73 311.237C1020.86 311.436 1021.12 311.719 1021.32 311.866L1021.69 312.133L1023.94 312.162C1026.58 312.196 1026.33 311.999 1025.96 313.733C1024.66 319.89 1020.11 324.796 1014.32 326.29C1013.78 326.426 1013.15 326.567 1012.91 326.603L1012.47 326.667V316.168V305.67L1013 305.495C1014.92 304.866 1016.63 303.305 1017.58 301.316C1018.11 300.199 1018.32 299.324 1018.38 297.956C1018.49 295.383 1017.68 293.291 1015.89 291.513C1014.65 290.283 1013.15 289.542 1011.45 289.32C1010.57 289.205 1010.37 289.205 1009.5 289.323ZM1011.18 293.518C1013.29 293.94 1014.75 296.059 1014.42 298.219C1014.08 300.477 1012.06 302.076 1009.99 301.737C1008.21 301.445 1006.89 300.047 1006.61 298.175C1006.36 296.472 1007.29 294.635 1008.79 293.899C1009.7 293.451 1010.33 293.35 1011.18 293.518Z" fill="#E10028"/>
<path d="M346.999 1.5C-275.964 32.5946 -35.0559 1040.39 891.349 282.329C916.006 261.289 925.446 206.416 885.988 185.829" stroke="#E10028" stroke-width="1.07222"/>
</svg>
